<svg xmlns="http://www.w3.org/2000/svg" xmlns:xlink="http://www.w3.org/1999/xlink" width="1000" height="911" viewBox="0 0 1000 911"><defs><linearGradient id="a" x1="0.5" y1="1.719" x2="0.5" y2="0.109" gradientUnits="objectBoundingBox"><stop offset="0" stop-color="#fff"/><stop offset="0.118" stop-color="#fff" stop-opacity="0.824"/><stop offset="0.3" stop-color="#fff" stop-opacity="0.576"/><stop offset="0.475" stop-color="#fff" stop-opacity="0.373"/><stop offset="0.636" stop-color="#fff" stop-opacity="0.212"/><stop offset="0.783" stop-color="#fff" stop-opacity="0.094"/><stop offset="0.909" stop-color="#fff" stop-opacity="0.024"/><stop offset="1" stop-color="#fff" stop-opacity="0"/></linearGradient></defs><g transform="translate(-34.043)"><g transform="translate(34.043)"><path d="M1004.178,652.6c16.093,0,29.23-12.386,29.476-27.833,1.232-77,7.694-190.578-143.366-221.99C768.045,377.361,840.523,168.816,511.3,182.291c-236.325,9.673-173.541,200.891-357.291,216.816C31.742,409.7,30.684,558.151,35.384,626.17,36.41,641.048,49.269,652.6,64.8,652.6Z" transform="translate(-34.043 258.397)" fill="#b5dfea"/><g transform="translate(378.022 440.062)"><path d="M670.089,402.78c-117.347-25.419-47.772-233.965-363.809-220.49-53.955,2.3-91.65,14.882-120.17,32.921,9.608-1.256,19.805-2.145,30.674-2.607,316.035-13.475,246.46,195.07,363.809,220.489C724.057,464.172,719.516,575.667,718.259,652.6h61.161a28.285,28.285,0,0,0,28.3-27.833C808.9,547.769,815.1,434.192,670.089,402.78Z" transform="translate(-186.11 -181.666)" fill="#90cedd" opacity="0.55"/></g><g transform="translate(270.668)"><rect width="4.99" height="364.053" transform="translate(68.72)" fill="#79c9e8"/><rect width="4.99" height="419.978" transform="translate(426.494)" fill="#79c9e8"/><g transform="translate(0 351.99)"><path d="M577.857,201.878l-371.05-43.309a28.907,28.907,0,0,0-32.063,25.362L147.049,421.2a28.906,28.906,0,0,0,25.362,32.063l371.05,43.311a28.907,28.907,0,0,0,32.063-25.362l27.693-237.268A28.906,28.906,0,0,0,577.857,201.878Z" transform="translate(-146.851 -158.371)" fill="#d7f0f9"/><path d="M586.642,257.426l2.74-23.484a28.906,28.906,0,0,0-25.359-32.065l-371.05-43.309A28.907,28.907,0,0,0,160.91,183.93l-2.743,23.486Z" transform="translate(-133.017 -158.371)" fill="#0582c1"/><g transform="translate(82.527 102.148)"><path d="M186.639,294.9l47.034-82.871a15.193,15.193,0,0,1,14.976-7.592h0a15.2,15.2,0,0,1,13.331,16.851L252.2,305.111l.418.049a10.531,10.531,0,0,1,9.237,11.677h0a10.529,10.529,0,0,1-11.677,9.237l-.42-.049-1.783,15.267a11.368,11.368,0,0,1-12.609,9.975h0a11.368,11.368,0,0,1-9.975-12.611l1.78-15.267-33.861-3.952a10.549,10.549,0,0,1-9.253-11.7l.9-7.695A13.683,13.683,0,0,1,186.639,294.9Zm43.131,6.2,6.068-51.986a.333.333,0,0,0-.62-.2l-27.789,49.034a1.392,1.392,0,0,0,1.049,2.069l19.75,2.3A1.39,1.39,0,0,0,229.77,301.1Z" transform="translate(-183.983 -204.331)" fill="#79c9e8"/><path d="M280.034,305.8l47.036-82.871a15.193,15.193,0,0,1,14.976-7.592h0a15.194,15.194,0,0,1,13.329,16.854l-9.784,83.826.418.049a10.527,10.527,0,0,1,9.237,11.677h0a10.525,10.525,0,0,1-11.677,9.235l-.418-.049-1.782,15.267a11.369,11.369,0,0,1-12.611,9.975h0a11.371,11.371,0,0,1-9.975-12.611l1.782-15.267L286.7,330.339a10.546,10.546,0,0,1-9.253-11.7l.9-7.692A13.637,13.637,0,0,1,280.034,305.8Zm43.133,6.2,6.068-51.986a.333.333,0,0,0-.62-.2l-27.791,49.036a1.393,1.393,0,0,0,1.049,2.067l19.752,2.3A1.391,1.391,0,0,0,323.168,312Z" transform="translate(-69.799 -191.003)" fill="#79c9e8"/><path d="M241.705,241.345c2.734-23.421,16.634-35.365,39.222-32.729s33.361,17.46,30.627,40.882l-8.884,76.123c-2.736,23.424-16.636,35.368-39.222,32.732s-33.363-17.46-30.629-40.884Zm13.949,80.272c-1.22,10.455,2.916,14.967,10.235,15.82s12.384-2.58,13.6-13.038l9.228-79.052c1.22-10.455-2.916-14.967-10.237-15.82s-12.384,2.583-13.6,13.04Z" transform="translate(-124.786 -199.531)" fill="#79c9e8"/></g><g transform="translate(53.408 24.317)"><path d="M186.366,177.98a7.768,7.768,0,1,1-6.817-8.615A7.769,7.769,0,0,1,186.366,177.98Z" transform="translate(-170.881 -169.312)" fill="#fff"/><path d="M203.112,179.936a7.768,7.768,0,1,1-6.814-8.617A7.769,7.769,0,0,1,203.112,179.936Z" transform="translate(-150.408 -166.923)" fill="#79c9e8"/><path d="M220.472,181.962a7.769,7.769,0,1,1-6.817-8.617A7.769,7.769,0,0,1,220.472,181.962Z" transform="translate(-129.187 -164.446)" fill="#ffbf4d"/></g></g></g><g transform="translate(202.97 530.108)"><path d="M148.01,301.527s-5.012,22.219-4.176,44.94c.747,20.341-1.671,154.048-1.671,154.048h16.331s23.248-104.721,24.117-112.991,12.564-90.97,12.564-90.97Z" transform="translate(-95.086 -131.252)" fill="#00668e"/><path d="M149.679,296.048s3.761,28.569,10.15,48.867,37.8,156.22,37.8,156.22H213.96s-3.007-104.721-4.136-112.991-9.4-90.97-9.4-90.97Z" transform="translate(-85.896 -131.872)" fill="#0582c1"/><path d="M171.853,388.311v11.4h31.089a1.783,1.783,0,0,0,.985-3.269c-4.545-3.027-11.828-7.2-18.6-8.128Z" transform="translate(-58.787 -19.074)" fill="#0582c1"/><path d="M142.537,388.311v11.4h31.087a1.784,1.784,0,0,0,.987-3.269c-4.547-3.027-11.828-7.2-18.6-8.128Z" transform="translate(-94.627 -19.074)" fill="#0582c1"/><g transform="translate(64.017 13.157)"><path d="M189.768,246.226s10.693-16.236-1.582-17.821c-9.428-1.216-13.3,1.591-13.3,1.591s-10.853-1.2-16.794,3.952c-4.07,3.529-19.01,30.889,5.147,40.791s19.01-15.445,19.01-15.445Z" transform="translate(-149.784 -228.1)" fill="#00668e"/><path d="M188.185,228.4c-9.428-1.216-13.3,1.591-13.3,1.591s-10.853-1.2-16.794,3.952c-4.07,3.529-19.01,30.889,5.147,40.791,11.355,4.654,16.234,1.518,18.218-3.109-22.921,6.445-25.406-21.177-21.626-29.038,3.838-7.988,13.055-4.3,13.055-4.3,3.6-9.073,15.351-8.088,20.194-7.383C192.192,229.647,190.663,228.725,188.185,228.4Z" transform="translate(-149.784 -228.1)" fill="#05556d"/><path d="M167.32,244.176s-3.167-3.169-5.543,0-.791,10.295,3.167,10.691c0,0-1.187,10.3-9.108,9.9v8.317H174.45v-6.337s11.484-4.752,11.088-14.258a52.487,52.487,0,0,0-3.169-16.236S176.032,243.383,167.32,244.176Z" transform="translate(-142.386 -218.129)" fill="#f98d3d"/><path d="M166.046,253.92c1.842.767,1.52,1.929,1.6,3.674h2.678v-6.337s-4.512,1.434-11.117-2.331C159.209,248.926,163.054,252.673,166.046,253.92Z" transform="translate(-138.262 -202.638)" fill="#ed701b"/></g><path d="M170.015,234.117s-9.648-3.843-10.775-.96c-.738,1.885,1.138,3.512,3.714,5.154l-2.271.373a.6.6,0,0,0-.289,1.049c.633.511,2.383.856,6.03.982Z" transform="translate(-74.405 -210.071)" fill="#f98d3d"/><g transform="translate(13.029 23.677)"><path d="M138.178,290.528l12.928,41.656-.23-2.1.23,2.1,4.364-60.661Z" transform="translate(-112.985 -185.531)" fill="none"/><path d="M278.315,257.366c-18.4-13.633-68.642-24.533-68.642-24.533l-4.141,7.546s45.614,17.676,42.6,20.31c-1.767,1.556-24.057,11.768-31.6,15.2a11.989,11.989,0,0,1-5.187,1.065l-23.095-.131s-16.66-1.98-29.771,13.078c-11.717,13.484-31.636,44.711-31.636,44.711l33.552,49.345,3.716,5.45.031-.065-.031.458s1.194.131,3.3.327c10.786,1,45.351,3.732,63.65-.147l.507-.116-.867-80.948a313.76,313.76,0,0,0,48.15-46.6A3.381,3.381,0,0,0,278.315,257.366ZM165.731,367.758l-3.274-7.152-10.426-22.781,17.3-19.378-3.109,42.52Z" transform="translate(-126.843 -232.833)" fill="#ffbf4d"/></g><path d="M144,290.322l3.273,7.152-1.588,21.587-.033.066-3.715-5.45Z" transform="translate(-95.358 -138.872)" fill="#efaa3a"/><path d="M172.823,292.516c-3.107,2.256-2.32,22.277-3.087,34.794-1.285,20.961-2.536,39.1-1.614,50.792a93.246,93.246,0,0,0,12.866-1.614l.507-.116-.867-80.948a313.76,313.76,0,0,0,48.15-46.6,3.381,3.381,0,0,0-.54-4.959A412.09,412.09,0,0,1,172.823,292.516Z" transform="translate(-63.737 -195.661)" fill="#f98d2b" opacity="0.29" style="mix-blend-mode:multiply;isolation:isolate"/><path d="M187.49,378.808c-.814-5.968-5.345-50.683-7.806-75.123l-11.737,1.291S185.07,445.738,186.194,491.8h5.432S188.619,387.078,187.49,378.808Z" transform="translate(-63.562 -122.535)" fill="#00668e"/><path d="M169.655,263.691l-3.536-6.343a23.98,23.98,0,1,0-4.147,5.645Z" transform="translate(-120.981 -222.18)" fill="#0582c1"/><g transform="translate(11.497 21.663)"><path d="M126.154,231.988h.931v3.34c0,1.022.3,1.46,1.025,1.46.562,0,.956-.28,1.474-.92v-3.881h.922v5.465h-.765l-.078-.856h-.036a2.3,2.3,0,0,1-1.8.991c-1.16,0-1.676-.745-1.676-2.136Z" transform="translate(-126.154 -231.852)" fill="#fff"/><path d="M130.371,237.988v1.845h-.925v-7.77h.767l.078.629h.033a2.834,2.834,0,0,1,1.745-.765c1.4,0,2.158,1.091,2.158,2.789,0,1.856-1.114,2.947-2.363,2.947a2.529,2.529,0,0,1-1.518-.631Zm1.338-1.1c.9,0,1.562-.822,1.562-2.171,0-1.2-.4-2.014-1.438-2.014a2.3,2.3,0,0,0-1.462.742v2.869A2.161,2.161,0,0,0,131.709,236.888Z" transform="translate(-122.129 -231.927)" fill="#fff"/><path d="M132.948,236.29a2.456,2.456,0,0,0,1.607.653c.72,0,1.08-.382,1.08-.856,0-.56-.651-.809-1.249-1.034-.776-.282-1.629-.653-1.629-1.574,0-.88.7-1.554,1.878-1.554a2.74,2.74,0,0,1,1.7.618l-.438.585a2.035,2.035,0,0,0-1.249-.482c-.687,0-1,.371-1,.787,0,.507.6.709,1.214.945.787.293,1.665.62,1.665,1.654,0,.887-.709,1.631-2,1.631a3.285,3.285,0,0,1-2.036-.756Z" transform="translate(-118.413 -231.927)" fill="#fff"/><path d="M135.972,233.87a.71.71,0,1,1-.673.72A.68.68,0,0,1,135.972,233.87Z" transform="translate(-114.974 -229.552)" fill="#fff"/><path d="M137.737,233.87a.71.71,0,1,1-.673.72A.68.68,0,0,1,137.737,233.87Z" transform="translate(-112.816 -229.552)" fill="#fff"/></g></g><g transform="translate(86.756 711.4)"><g transform="translate(29.031)"><path d="M120.38,452.1s-5.034-4.7-1.656-22.537,11.949-34.961,7.746-54.308S89.3,307.121,89.187,303.876s-10.17,56.753,6.879,80.388,19.1,31.834,18.343,44.262.176,22.439,2.045,25.328Z" transform="translate(-86.139 -303.749)" fill="#79c9e8"/><path d="M115.583,416.157c-1.983,7.955-3.178,27.9-.011,32.678.3.445.722.191,1.249-.631-.965-3.3-1.6-9.077.227-18.714,3.378-17.834,11.949-34.961,7.746-54.308s-37.172-68.13-37.284-71.375c0,0,4.967,40.644,21.7,68.622C121.186,392.455,117.566,408.2,115.583,416.157Z" transform="translate(-84.462 -303.679)" fill="#49b4d6"/></g><g transform="translate(66.447 43.518)"><path d="M105.811,426.918s-9.686-24.182,6.73-45.118,42.664-47.821,43.187-58.471c0,0,6.748,50.566-14.618,64.879s-36.348,16.6-32.645,38.619Z" transform="translate(-102.973 -323.329)" fill="#79c9e8"/><path d="M127.571,378.042C103.75,395.382,101.8,415.356,105.5,424.62a2.351,2.351,0,0,0,1.549,1.4c-3.194-21.257,11.666-23.675,32.763-37.808,21.365-14.313,14.618-64.879,14.618-64.879S151.395,360.7,127.571,378.042Z" transform="translate(-101.674 -323.329)" fill="#49b4d6"/></g><g transform="translate(0 33.892)"><path d="M126.432,432.758a84.538,84.538,0,0,0,1.454-26.629c-1.654-13.824-16.094-21.6-29.585-36.2-6.943-7.512-9-47.238-4.692-50.93,0,0-23.821,28.869-20.148,50.006S116,403.878,119.593,414.09a56.69,56.69,0,0,1,3.3,18.787Z" transform="translate(-73.077 -318.998)" fill="#79c9e8"/><g transform="translate(9.596)"><path d="M80.278,330.064c-7.872,21.321.2,47.143,26.353,63.183,19.254,11.806,13.122,36.359,13.122,36.359l3.145-9.686a76.9,76.9,0,0,0-.291-14.087c-1.654-13.824-16.094-21.6-29.585-36.2-6.7-7.246-8.841-44.447-5.125-50.392A127.662,127.662,0,0,0,80.278,330.064Z" transform="translate(-77.394 -318.702)" fill="#49b4d6"/><path d="M82.12,319.536c.271-.34.433-.538.433-.538A2.4,2.4,0,0,0,82.12,319.536Z" transform="translate(-71.617 -318.998)" fill="#49b4d6"/></g></g><g transform="translate(74.27 95.352)"><path d="M106.493,397.35s5.583-20.717,19.392-23.5,29.665-23.195,30.522-27.2C156.407,346.651,154.078,385.132,106.493,397.35Z" transform="translate(-106.493 -346.651)" fill="#79c9e8"/><path d="M122.14,380.694c-8.461,4.23-11.98,9.919-13.229,15.087,42.367-13.624,44.54-49.13,44.54-49.13A15.329,15.329,0,0,1,151.3,350.7C147.144,357.977,137.084,373.222,122.14,380.694Z" transform="translate(-103.537 -346.651)" fill="#49b4d6"/></g><path d="M159.664,366.03H87.442l8.577,53.942a8.426,8.426,0,0,0,8.321,7.1h38.426a8.425,8.425,0,0,0,8.321-7.1Z" transform="translate(-55.514 -227.607)" fill="#ffbf4d"/><path d="M158.245,374.955l1.419-8.925H87.442l1.419,8.925Z" transform="translate(-55.514 -227.607)" fill="#ff9f50"/><path d="M121.36,366.03l-8.577,53.942a8.426,8.426,0,0,1-8.321,7.1h17.5a8.425,8.425,0,0,0,8.321-7.1l8.577-53.942Z" transform="translate(-34.706 -227.607)" fill="#ff9f50"/></g><g transform="translate(385.552 705.309)"><rect width="326.413" height="66.367" transform="translate(0 48.316)" fill="#ffbf4d"/><rect width="326.413" height="16.109" transform="translate(0 48.316)" fill="#f98d2b" opacity="0.29" style="mix-blend-mode:multiply;isolation:isolate"/><path d="M214.373,322.747h29.792l-7.985,16.115H206.372Z" transform="translate(-185.992 -274.431)" fill="#f77e2d"/><path d="M244.563,322.747h29.792l-7.985,16.115H236.578Z" transform="translate(-149.062 -274.431)" fill="#f77e2d"/><path d="M274.763,322.747h29.792l-7.985,16.115H266.778Z" transform="translate(-112.142 -274.431)" fill="#f77e2d"/><path d="M304.962,322.747h29.776l-7.985,16.115H296.977Z" transform="translate(-75.221 -274.431)" fill="#f77e2d"/><path d="M364.713,322.747v.449l-7.777,15.666h-29.76l7.985-16.115Z" transform="translate(-38.3 -274.431)" fill="#f77e2d"/><rect width="23.011" height="90.745" transform="translate(40.632 114.688)" fill="#79c9e8"/><rect width="5.227" height="90.745" transform="translate(58.416 114.688)" fill="#49b4d6"/><rect width="23.011" height="90.745" transform="translate(264.558 114.688)" fill="#79c9e8"/><rect width="6.803" height="90.745" transform="translate(280.766 114.688)" fill="#49b4d6"/><rect width="23.011" height="11.428" transform="translate(40.632 114.618)" fill="#49b4d6"/><rect width="23.011" height="11.428" transform="translate(264.558 114.618)" fill="#49b4d6"/><rect width="23.011" height="10.304" transform="translate(40.632 37.947)" fill="#79c9e8"/><rect width="5.227" height="10.304" transform="translate(58.416 37.947)" fill="#49b4d6"/><rect width="23.011" height="10.304" transform="translate(264.558 37.947)" fill="#79c9e8"/><rect width="6.803" height="10.304" transform="translate(280.766 37.947)" fill="#49b4d6"/><rect width="23.011" height="1.298" transform="translate(40.632 46.962)" fill="#49b4d6"/><rect width="23.011" height="1.298" transform="translate(264.558 46.962)" fill="#49b4d6"/><g transform="translate(0 48.316)"><path d="M255.375,322.747l-32.919,66.367H197.2v-9.156l28.381-57.211Z" transform="translate(-197.202 -322.747)" fill="#0582c1"/><path d="M258.279,322.747,225.36,389.114h29.792l32.919-66.367Z" transform="translate(-162.777 -322.747)" fill="#0582c1"/><path d="M318.27,322.747l-32.919,66.367H255.559l32.919-66.367Z" transform="translate(-125.857 -322.747)" fill="#0582c1"/><path d="M348.453,322.747l-32.9,66.367H285.759l32.919-66.367Z" transform="translate(-88.936 -322.747)" fill="#0582c1"/><path d="M348.877,322.747l-32.919,66.367h29.776L378.428,323.2Z" transform="translate(-52.015 -322.747)" fill="#0582c1"/></g><g transform="translate(20.38 48.316)"><path d="M244.165,322.747l-7.985,16.115H206.372l8-16.115Z" transform="translate(-206.372 -322.747)" fill="#00668e"/><path d="M274.355,322.747l-7.985,16.115H236.578l7.985-16.115Z" transform="translate(-169.442 -322.747)" fill="#00668e"/><path d="M304.555,322.747l-7.985,16.115H266.778l7.985-16.115Z" transform="translate(-132.521 -322.747)" fill="#00668e"/><path d="M334.738,322.747l-7.985,16.115H296.977l7.985-16.115Z" transform="translate(-95.601 -322.747)" fill="#00668e"/><path d="M364.713,323.2l-7.777,15.666h-29.76l7.985-16.115Z" transform="translate(-58.68 -322.747)" fill="#00668e"/></g><rect width="311.691" height="33.196" transform="translate(9.096 77.028)" opacity="0.55" fill="url(#a)" style="mix-blend-mode:overlay;isolation:isolate"/><circle cx="20.516" cy="20.516" r="20.516" transform="matrix(0.987, -0.161, 0.161, 0.987, 27.992, 6.591)" fill="#ffbf4d"/><path d="M234.8,316.716a9.3,9.3,0,1,0-9.3,9.3A9.3,9.3,0,0,0,234.8,316.716Z" transform="translate(-173.967 -293.171)" fill="#0582c1"/><circle cx="20.516" cy="20.516" r="20.516" transform="matrix(0.987, -0.161, 0.161, 0.987, 252.383, 6.591)" fill="#ffbf4d"/><path d="M335.763,316.716a9.3,9.3,0,1,0-9.3,9.3A9.3,9.3,0,0,0,335.763,316.716Z" transform="translate(-50.537 -293.171)" fill="#0582c1"/></g><g transform="translate(740.488 787.352)"><path d="M456.888,454.278H352.932l15.9-38.546v-.022l6.4-15.551,1.76-4.265,2.872-6.939.589-1.414,6.394-15.554,1.176-2.827,11.333-27.518a6.011,6.011,0,0,1,11.115,0L421.8,369.16l1.176,2.827,6.394,15.554.589,1.414,2.869,6.939,1.763,4.265,6.4,15.551v.022Z" transform="translate(-344.625 -337.922)" fill="#ffbf4d"/><path d="M359.745,382.838l-6.811,16.526H456.9l-6.811-16.526Z" transform="translate(-344.623 -283.009)" fill="#f98d2b" opacity="0.29" style="mix-blend-mode:multiply;isolation:isolate"/><rect width="119.064" height="16.832" transform="translate(0 106.475)" fill="#79c9e8"/><rect width="25.724" height="16.832" transform="translate(93.34 106.475)" fill="#49b4d6"/><g transform="translate(24.208 0.011)"><path d="M428.246,444.384h-14.7l-11.813-28.649v-.02l-6.394-15.553-1.763-4.263-2.872-6.941-.587-1.414-6.394-15.554-1.176-2.827L373.015,346l1.785-4.35a6.012,6.012,0,0,1,11.115,0l11.333,27.518,1.176,2.827,6.394,15.554.589,1.414,2.869,6.941,1.763,4.263,6.4,15.553v.02Z" transform="translate(-344.28 -337.927)" fill="#f98d2b" opacity="0.29" style="mix-blend-mode:multiply;isolation:isolate"/><g transform="translate(0 34.054)"><path d="M414.235,368.8H365.313l6.4-15.553H407.84Z" transform="translate(-353.697 -353.249)" fill="#0582c1"/><path d="M432.241,381.477v.022H360.086v-.022l6.4-15.553h59.364Z" transform="translate(-360.086 -337.753)" fill="#0582c1"/><path d="M398.931,368.8h-14.7l-6.4-15.553h14.7Z" transform="translate(-338.393 -353.249)" fill="#00668e"/><path d="M404.157,381.477v.022H389.452v-.022l-6.4-15.553h14.7Z" transform="translate(-332.003 -337.753)" fill="#00668e"/></g></g></g><g transform="translate(18.136 275.685)"><path d="M174.124,263.483a15.628,15.628,0,0,0,15.569-13.335A31.052,31.052,0,0,0,158.955,214.9c-.7,0-1.4.031-2.091.078a32.953,32.953,0,0,0-65.788,2.787c0,.807.038,1.6.1,2.4a32.957,32.957,0,0,0-48.916,26.4c-.009.131-.018.262-.024.393a15.706,15.706,0,0,0,15.74,16.529Z" transform="translate(-42.203 -34.526)" fill="#d7f0f9"/><path d="M509.962,270.465c24.533,0,25.893-36.921,1.389-38.113-.671-.031-1.345-.049-2.02-.049a40.934,40.934,0,0,0-12.537,1.962,42.095,42.095,0,0,0-83.262,1.329,38.967,38.967,0,0,0-26.455-2.571c-21.452,5.525-16.949,37.441,5.2,37.441Z" transform="translate(402.414 -17.14)" fill="#d7f0f9"/><path d="M377.383,188.6c24.526,0,25.884-36.91,1.387-38.1-.669-.031-1.342-.049-2.02-.049a40.917,40.917,0,0,0-12.533,1.963,42.081,42.081,0,0,0-83.235,1.327,38.962,38.962,0,0,0-26.448-2.569c-21.445,5.523-16.943,37.43,5.2,37.43Z" transform="translate(224.337 -117.193)" fill="#d7f0f9"/><circle cx="58.797" cy="58.797" r="58.797" transform="translate(128.439 22.037)" fill="#ffbf4d"/><path d="M144.663,127.113a58.793,58.793,0,0,1-32.241,107.961c-.162,0-.32-.011-.482-.013a58.791,58.791,0,1,0,32.723-107.948Z" transform="translate(50.81 -105.065)" fill="#ff9f50"/></g></g></g></svg>